<svg width="1080" height="400" viewBox="0 0 1080 400" fill="none" xmlns="http://www.w3.org/2000/svg">
<rect width="1080" height="400" fill="#CAFC01"/>
<g clip-path="url(#clip0_871_4047)">
<path d="M500.996 230.447C496.045 230.447 491.599 229.383 487.659 227.256C483.719 225.13 480.616 222.079 478.35 218.104C476.083 214.129 474.95 209.422 474.95 203.983V202.832C474.95 197.323 476.083 192.599 478.35 188.659C480.616 184.719 483.719 181.685 487.659 179.558C491.599 177.432 496.045 176.368 500.996 176.368C505.877 176.368 510.044 177.275 513.496 179.088C516.947 180.901 519.667 183.307 521.654 186.305C523.642 189.304 524.914 192.512 525.472 195.929L517.418 197.602C517.069 195.092 516.25 192.79 514.96 190.698C513.67 188.606 511.874 186.933 509.573 185.678C507.272 184.422 504.448 183.795 501.1 183.795C497.683 183.795 494.633 184.562 491.948 186.096C489.263 187.63 487.136 189.827 485.567 192.686C483.998 195.545 483.214 198.962 483.214 202.937V203.878C483.214 207.853 483.998 211.27 485.567 214.129C487.136 216.988 489.263 219.185 491.948 220.719C494.633 222.253 497.683 223.02 501.1 223.02C506.191 223.02 510.079 221.695 512.763 219.045C515.448 216.395 517.104 213.118 517.732 209.213L525.891 210.991C525.124 214.338 523.729 217.511 521.707 220.51C519.684 223.508 516.947 225.914 513.496 227.727C510.044 229.54 505.877 230.447 500.996 230.447Z" fill="black"/>
<path d="M563.652 230.447C558.491 230.447 553.941 229.366 550.001 227.204C546.061 225.042 542.993 221.992 540.796 218.052C538.6 214.112 537.501 209.457 537.501 204.087V202.728C537.501 197.428 538.6 192.79 540.796 188.816C542.993 184.841 546.061 181.773 550.001 179.611C553.941 177.449 558.491 176.368 563.652 176.368C568.812 176.368 573.362 177.449 577.302 179.611C581.242 181.773 584.31 184.841 586.507 188.816C588.704 192.79 589.802 197.428 589.802 202.728V204.087C589.802 209.457 588.704 214.112 586.507 218.052C584.31 221.992 581.242 225.042 577.302 227.204C573.362 229.366 568.812 230.447 563.652 230.447ZM563.652 223.02C569.091 223.02 573.432 221.294 576.674 217.842C579.917 214.391 581.538 209.736 581.538 203.878V202.937C581.538 197.079 579.917 192.424 576.674 188.973C573.432 185.521 569.091 183.795 563.652 183.795C558.282 183.795 553.959 185.521 550.681 188.973C547.404 192.424 545.765 197.079 545.765 202.937V203.878C545.765 209.736 547.404 214.391 550.681 217.842C553.959 221.294 558.282 223.02 563.652 223.02Z" fill="black"/>
<path d="M604.655 228.982V177.833H612.71V186.514H614.174C615.29 184.074 617.19 181.86 619.875 179.872C622.559 177.885 626.517 176.891 631.747 176.891C635.582 176.891 639.017 177.693 642.05 179.297C645.083 180.901 647.507 183.272 649.32 186.41C651.133 189.548 652.039 193.418 652.039 198.02V228.982H643.776V198.648C643.776 193.558 642.503 189.862 639.958 187.56C637.413 185.259 633.978 184.109 629.655 184.109C624.704 184.109 620.677 185.712 617.573 188.92C614.47 192.128 612.919 196.905 612.919 203.251V228.982H604.655Z" fill="black"/>
<path d="M668.775 228.982V177.833H676.83V186.514H678.294C679.41 184.074 681.31 181.86 683.995 179.872C686.68 177.885 690.637 176.891 695.867 176.891C699.702 176.891 703.137 177.693 706.17 179.297C709.204 180.901 711.627 183.272 713.44 186.41C715.253 189.548 716.16 193.418 716.16 198.02V228.982H707.896V198.648C707.896 193.558 706.623 189.862 704.078 187.56C701.533 185.259 698.098 184.109 693.775 184.109C688.824 184.109 684.797 185.712 681.694 188.92C678.59 192.128 677.039 196.905 677.039 203.251V228.982H668.775Z" fill="black"/>
<path d="M756.32 230.447C751.16 230.447 746.627 229.348 742.722 227.152C738.817 224.955 735.784 221.87 733.622 217.895C731.46 213.92 730.379 209.317 730.379 204.087V202.832C730.379 197.532 731.46 192.895 733.622 188.92C735.784 184.945 738.782 181.86 742.618 179.663C746.453 177.466 750.846 176.368 755.797 176.368C760.609 176.368 764.863 177.397 768.559 179.454C772.255 181.511 775.148 184.457 777.241 188.293C779.333 192.128 780.379 196.626 780.379 201.786V205.552H738.643C738.852 211.061 740.63 215.367 743.977 218.47C747.325 221.573 751.509 223.125 756.53 223.125C760.923 223.125 764.305 222.114 766.676 220.091C769.047 218.069 770.86 215.663 772.115 212.874L779.228 216.326C778.182 218.487 776.735 220.649 774.887 222.811C773.039 224.973 770.633 226.786 767.67 228.25C764.706 229.715 760.923 230.447 756.32 230.447ZM738.747 198.753H772.01C771.732 194.011 770.11 190.315 767.147 187.665C764.183 185.015 760.4 183.69 755.797 183.69C751.125 183.69 747.29 185.015 744.291 187.665C741.293 190.321 739.445 194.011 738.747 198.753Z" fill="black"/>
<path d="M818.349 230.447C813.398 230.447 808.952 229.383 805.012 227.256C801.072 225.13 797.969 222.079 795.703 218.104C793.436 214.129 792.303 209.422 792.303 203.983V202.832C792.303 197.323 793.436 192.599 795.703 188.659C797.969 184.719 801.072 181.685 805.012 179.558C808.952 177.432 813.398 176.368 818.349 176.368C823.23 176.368 827.397 177.275 830.849 179.088C834.3 180.901 837.02 183.307 839.007 186.305C840.995 189.304 842.268 192.512 842.825 195.929L834.771 197.602C834.423 195.092 833.603 192.79 832.313 190.698C831.023 188.606 829.227 186.933 826.926 185.678C824.625 184.422 821.801 183.795 818.453 183.795C815.036 183.795 811.986 184.562 809.301 186.096C806.616 187.63 804.489 189.827 802.92 192.686C801.351 195.545 800.567 198.962 800.567 202.937V203.878C800.567 207.853 801.351 211.27 802.92 214.129C804.489 216.988 806.616 219.185 809.301 220.719C811.986 222.253 815.036 223.02 818.453 223.02C823.544 223.02 827.432 221.695 830.116 219.045C832.801 216.395 834.457 213.118 835.085 209.213L843.244 210.991C842.477 214.338 841.082 217.511 839.06 220.51C837.038 223.508 834.3 225.914 830.849 227.727C827.397 229.54 823.23 230.447 818.349 230.447Z" fill="black"/>
<path d="M874.101 228.982C871.172 228.982 868.923 228.18 867.354 226.577C865.785 224.973 865.001 222.776 865.001 219.987V185.05H849.625V177.833H865.001V159.632H873.264V177.833H890V185.05H873.264V218.732C873.264 220.824 874.275 221.87 876.298 221.87H887.699V228.982H874.101Z" fill="black"/>
<path d="M388.248 180.616C385.406 180.616 383.099 182.923 383.099 185.765C383.099 188.606 385.412 190.913 388.248 190.913H409.214C422.15 190.913 432.674 201.437 432.674 214.373C432.674 227.309 422.15 237.833 409.214 237.833H359.639C346.704 237.833 336.18 227.309 336.18 214.373V196.254C336.18 187.636 329.166 180.622 320.548 180.622H310.064C307.223 180.622 304.916 182.929 304.916 185.77V214.379C304.916 227.314 294.392 237.838 281.456 237.838H227.505C218.434 237.838 210.938 231.905 208.851 223.072C206.765 214.239 210.821 205.581 218.934 201.524L257.491 182.243C257.828 182.075 258.101 181.941 257.944 181.278C257.787 180.616 257.491 180.616 257.107 180.616H190V237.542C190 247.81 198.327 256.138 208.596 256.138H432.389C442.657 256.138 450.985 247.81 450.985 237.542V180.616H388.248Z" fill="black"/>
<path d="M257.107 162.311C266.178 162.311 273.675 168.244 275.761 177.071C277.847 185.904 273.791 194.563 265.679 198.619L227.122 217.9C226.785 218.069 226.512 218.203 226.668 218.865C226.825 219.528 227.122 219.528 227.505 219.528H281.456C284.298 219.528 286.605 217.221 286.605 214.379V185.765C286.605 172.829 297.129 162.305 310.064 162.305H320.548C339.265 162.305 354.491 177.53 354.491 196.248V214.373C354.491 217.215 356.798 219.522 359.639 219.522H409.214C412.056 219.522 414.363 217.215 414.363 214.373C414.363 211.531 412.056 209.224 409.214 209.224H388.248C375.312 209.224 364.788 198.7 364.788 185.765C364.788 172.829 375.312 162.305 388.248 162.305H450.979C450.822 152.17 442.564 144 432.389 144H208.596C198.42 144 190.163 152.17 190.006 162.311H257.107Z" fill="black"/>
</g>
<defs>
<clipPath id="clip0_871_4047">
<rect width="700" height="112.144" fill="white" transform="translate(190 144)"/>
</clipPath>
</defs>
</svg>
