<svg width="1080" height="400" viewBox="0 0 1080 400" fill="none" xmlns="http://www.w3.org/2000/svg">
<rect width="1080" height="400" fill="#CAFC01"/>
<g clip-path="url(#clip0_871_4008)">
<path d="M509.987 226.541C505.151 226.541 500.808 225.502 496.959 223.425C493.11 221.347 490.079 218.367 487.865 214.484C485.651 210.601 484.544 206.003 484.544 200.689V199.565C484.544 194.184 485.651 189.569 487.865 185.72C490.079 181.871 493.11 178.908 496.959 176.83C500.808 174.752 505.151 173.713 509.987 173.713C514.756 173.713 518.826 174.599 522.198 176.37C525.57 178.141 528.227 180.491 530.168 183.421C532.109 186.35 533.353 189.483 533.898 192.821L526.03 194.456C525.689 192.004 524.889 189.756 523.628 187.712C522.368 185.669 520.614 184.034 518.366 182.808C516.118 181.581 513.359 180.968 510.089 180.968C506.751 180.968 503.771 181.718 501.148 183.216C498.526 184.715 496.448 186.861 494.915 189.654C493.383 192.447 492.616 195.785 492.616 199.667V200.587C492.616 204.47 493.383 207.808 494.915 210.601C496.448 213.394 498.526 215.54 501.148 217.038C503.771 218.537 506.751 219.286 510.089 219.286C515.062 219.286 518.86 217.992 521.483 215.403C524.105 212.815 525.723 209.613 526.336 205.798L534.306 207.535C533.557 210.805 532.195 213.905 530.219 216.834C528.244 219.763 525.57 222.113 522.198 223.884C518.826 225.656 514.756 226.541 509.987 226.541Z" fill="black"/>
<path d="M571.194 226.541C566.153 226.541 561.708 225.485 557.859 223.374C554.01 221.262 551.013 218.282 548.867 214.433C546.721 210.584 545.648 206.037 545.648 200.791V199.463C545.648 194.286 546.721 189.756 548.867 185.873C551.013 181.99 554.01 178.993 557.859 176.881C561.708 174.769 566.153 173.713 571.194 173.713C576.235 173.713 580.68 174.769 584.528 176.881C588.377 178.993 591.375 181.99 593.52 185.873C595.666 189.756 596.739 194.286 596.739 199.463V200.791C596.739 206.037 595.666 210.584 593.52 214.433C591.375 218.282 588.377 221.262 584.528 223.374C580.68 225.485 576.235 226.541 571.194 226.541ZM571.194 219.286C576.507 219.286 580.748 217.6 583.915 214.228C587.083 210.856 588.667 206.309 588.667 200.587V199.667C588.667 193.945 587.083 189.398 583.915 186.026C580.748 182.654 576.507 180.968 571.194 180.968C565.948 180.968 561.725 182.654 558.523 186.026C555.322 189.398 553.721 193.945 553.721 199.667V200.587C553.721 206.309 555.322 210.856 558.523 214.228C561.725 217.6 565.948 219.286 571.194 219.286Z" fill="black"/>
<path d="M611.249 225.111V175.144H619.117V183.625H620.548C621.637 181.241 623.494 179.078 626.116 177.136C628.739 175.195 632.605 174.224 637.714 174.224C641.461 174.224 644.816 175.008 647.779 176.574C650.742 178.141 653.109 180.457 654.881 183.523C656.652 186.588 657.537 190.369 657.537 194.865V225.111H649.465V195.478C649.465 190.505 648.222 186.895 645.735 184.647C643.249 182.399 639.894 181.275 635.67 181.275C630.834 181.275 626.9 182.841 623.868 185.975C620.837 189.109 619.321 193.775 619.321 199.974V225.111H611.249Z" fill="black"/>
<path d="M673.886 225.111V175.144H681.754V183.625H683.185C684.275 181.241 686.131 179.078 688.754 177.136C691.376 175.195 695.242 174.224 700.351 174.224C704.098 174.224 707.453 175.008 710.416 176.574C713.379 178.141 715.747 180.457 717.518 183.523C719.289 186.588 720.174 190.369 720.174 194.865V225.111H712.102V195.478C712.102 190.505 710.859 186.895 708.372 184.647C705.886 182.399 702.531 181.275 698.308 181.275C693.471 181.275 689.537 182.841 686.506 185.975C683.474 189.109 681.959 193.775 681.959 199.974V225.111H673.886Z" fill="black"/>
<path d="M759.412 226.541C754.371 226.541 749.943 225.468 746.129 223.322C742.314 221.177 739.351 218.162 737.239 214.279C735.127 210.397 734.071 205.901 734.071 200.791V199.565C734.071 194.388 735.127 189.858 737.239 185.975C739.351 182.092 742.28 179.078 746.027 176.932C749.773 174.786 754.065 173.713 758.901 173.713C763.602 173.713 767.757 174.718 771.368 176.728C774.978 178.737 777.805 181.615 779.849 185.362C781.892 189.109 782.914 193.503 782.914 198.543V202.222H742.144C742.348 207.604 744.085 211.81 747.355 214.841C750.625 217.873 754.712 219.389 759.617 219.389C763.908 219.389 767.212 218.401 769.528 216.425C771.844 214.45 773.616 212.1 774.842 209.375L781.79 212.747C780.768 214.858 779.355 216.97 777.55 219.082C775.744 221.194 773.394 222.965 770.499 224.395C767.604 225.826 763.908 226.541 759.412 226.541ZM742.246 195.58H774.74C774.467 190.948 772.883 187.338 769.988 184.749C767.093 182.16 763.397 180.866 758.901 180.866C754.337 180.866 750.591 182.16 747.661 184.749C744.732 187.343 742.927 190.954 742.246 195.58Z" fill="black"/>
<path d="M820.006 226.541C815.169 226.541 810.826 225.502 806.978 223.425C803.129 221.347 800.097 218.367 797.883 214.484C795.669 210.601 794.562 206.003 794.562 200.689V199.565C794.562 194.184 795.669 189.569 797.883 185.72C800.097 181.871 803.129 178.908 806.978 176.83C810.826 174.752 815.169 173.713 820.006 173.713C824.774 173.713 828.844 174.599 832.216 176.37C835.588 178.141 838.245 180.491 840.187 183.421C842.128 186.35 843.371 189.483 843.916 192.821L836.048 194.456C835.708 192.004 834.907 189.756 833.647 187.712C832.387 185.669 830.633 184.034 828.385 182.808C826.137 181.581 823.378 180.968 820.108 180.968C816.77 180.968 813.79 181.718 811.167 183.216C808.544 184.715 806.467 186.861 804.934 189.654C803.401 192.447 802.635 195.785 802.635 199.667V200.587C802.635 204.47 803.401 207.808 804.934 210.601C806.467 213.394 808.544 215.54 811.167 217.038C813.79 218.537 816.77 219.286 820.108 219.286C825.081 219.286 828.878 217.992 831.501 215.403C834.124 212.815 835.742 209.613 836.355 205.798L844.325 207.535C843.576 210.805 842.213 213.905 840.238 216.834C838.262 219.763 835.588 222.113 832.216 223.884C828.844 225.656 824.774 226.541 820.006 226.541Z" fill="black"/>
<path d="M874.469 225.111C871.607 225.111 869.411 224.327 867.878 222.76C866.345 221.194 865.579 219.048 865.579 216.323V182.194H850.558V175.144H865.579V157.364H873.651V175.144H890V182.194H873.651V215.097C873.651 217.14 874.639 218.162 876.614 218.162H887.752V225.111H874.469Z" fill="black"/>
<path d="M386.796 180.599C384.02 180.599 381.766 182.853 381.766 185.629C381.766 188.405 384.02 190.658 386.796 190.658H407.278C419.914 190.658 430.195 200.939 430.195 213.575C430.195 226.212 419.914 236.492 407.278 236.492H358.849C346.213 236.492 335.932 226.212 335.932 213.575V195.875C335.932 187.457 329.08 180.605 320.662 180.605H310.421C307.645 180.605 305.391 182.858 305.391 185.634V213.581C305.391 226.217 295.111 236.498 282.474 236.498H229.766C220.904 236.498 213.581 230.702 211.543 222.073C209.505 213.445 213.468 204.986 221.392 201.024L259.058 182.189C259.387 182.024 259.654 181.893 259.5 181.246C259.347 180.599 259.058 180.599 258.683 180.599H191.379C190.477 186.804 190 193.15 190 199.605C190 271.734 248.476 330.21 320.605 330.21C392.734 330.21 451.21 271.734 451.21 199.605C451.21 193.15 450.733 186.804 449.83 180.599H386.796Z" fill="black"/>
<path d="M258.683 162.717C267.544 162.717 274.867 168.513 276.905 177.136C278.943 185.765 274.981 194.223 267.056 198.186L229.391 217.021C229.062 217.186 228.795 217.316 228.948 217.964C229.101 218.611 229.391 218.611 229.766 218.611H282.469C285.245 218.611 287.498 216.351 287.498 213.581V185.635C287.498 172.998 297.779 162.717 310.415 162.717H320.656C338.941 162.717 353.814 177.591 353.814 195.875V213.581C353.814 216.357 356.068 218.611 358.844 218.611H407.272C410.048 218.611 412.302 216.351 412.302 213.581C412.302 210.811 410.048 208.552 407.272 208.552H386.79C374.154 208.552 363.873 198.271 363.873 185.635C363.873 172.998 374.154 162.717 386.79 162.717H445.914C429.996 108.55 379.921 69 320.605 69C261.283 69 211.214 108.55 195.291 162.717H258.683Z" fill="black"/>
</g>
<defs>
<clipPath id="clip0_871_4008">
<rect width="700" height="261.21" fill="white" transform="translate(190 69)"/>
</clipPath>
</defs>
</svg>
