<svg width="1080" height="1080" viewBox="0 0 1080 1080" fill="none" xmlns="http://www.w3.org/2000/svg">
<rect width="1080" height="1080" rx="25" fill="black"/>
<g clip-path="url(#clip0_900_4711)">
<path d="M804.194 750H275.807C249.618 750 228.387 728.77 228.387 702.581V377.419C228.387 351.23 249.618 330 275.807 330H804.194C830.383 330 851.613 351.23 851.613 377.419V702.581C851.613 728.77 830.383 750 804.194 750Z" fill="#CAFC01"/>
<path d="M748.677 701.858H632.085C601.662 701.858 576.911 676.962 576.911 646.361V603.497C576.911 583.11 560.415 566.517 540.147 566.517H515.479C508.796 566.517 503.37 571.975 503.37 578.697V646.374C503.37 676.976 478.619 701.872 448.197 701.872H321.313C299.979 701.872 282.349 687.836 277.443 666.94C272.536 646.045 282.076 625.561 301.155 615.966L391.835 570.353C392.627 569.954 393.27 569.638 392.901 568.071C392.532 566.503 391.835 566.503 390.933 566.503H228.387V523.2L390.933 523.2C412.267 523.2 429.897 537.236 434.803 558.118C439.71 579.013 430.17 599.497 411.091 609.092L320.411 654.705C319.619 655.104 318.976 655.42 319.345 656.987C319.714 658.554 320.411 658.554 321.313 658.554H448.197C454.88 658.554 460.306 653.097 460.306 646.374V578.697C460.319 548.096 485.07 523.2 515.479 523.2H540.134C584.155 523.2 619.962 559.218 619.962 603.497V646.374C619.962 653.097 625.388 658.554 632.071 658.554H748.663C755.346 658.554 760.772 653.097 760.772 646.374C760.772 639.652 755.346 634.194 748.663 634.194H699.353C668.931 634.194 644.18 609.298 644.18 578.697C644.18 548.096 668.944 523.2 699.353 523.2H851.613V566.517H699.353C692.67 566.517 687.244 571.975 687.244 578.697C687.244 585.42 692.67 590.877 699.353 590.877H748.663C779.086 590.877 803.836 615.773 803.836 646.374C803.836 676.976 779.099 701.858 748.677 701.858Z" fill="black"/>
<path d="M316.438 478.192C309.298 478.192 303.73 476.824 299.747 474.1C295.75 471.377 292.864 468.275 291.076 464.806H289.098V476.214H278.245V377.582H289.382V418.159H291.36C292.485 416.005 294.083 413.959 296.156 412.035C298.216 410.111 300.925 408.513 304.258 407.239C307.591 405.966 311.656 405.342 316.452 405.342C322.467 405.342 327.941 406.779 332.872 409.637C337.804 412.51 341.72 416.588 344.632 421.899C347.545 427.21 348.995 433.523 348.995 440.853V442.682C348.995 450.011 347.518 456.352 344.551 461.704C341.598 467.055 337.641 471.147 332.71 473.965C327.778 476.783 322.359 478.192 316.438 478.192ZM313.485 468.329C320.625 468.329 326.423 466.053 330.881 461.5C335.338 456.948 337.574 450.58 337.574 442.411V441.137C337.574 432.968 335.338 426.6 330.881 422.048C326.423 417.495 320.611 415.219 313.485 415.219C306.44 415.219 300.641 417.495 296.089 422.048C291.536 426.6 289.26 432.968 289.26 441.137V442.411C289.26 450.58 291.536 456.948 296.089 461.5C300.641 466.053 306.44 468.329 313.485 468.329Z" fill="black"/>
<path d="M395.344 477.488C390.358 477.488 385.779 476.404 381.606 474.25C377.42 472.095 374.141 468.871 371.743 464.603C369.345 460.335 368.153 455.146 368.153 449.036V407.321H379.289V448.182C379.289 455.038 380.996 460.024 384.438 463.113C387.865 466.215 392.485 467.76 398.311 467.76C404.882 467.76 410.288 465.606 414.515 461.284C418.742 456.962 420.856 450.526 420.856 441.977V407.321H431.993V476.228H421.14V464.535H419.162C417.658 467.828 415.071 470.808 411.413 473.477C407.741 476.16 402.389 477.488 395.344 477.488Z" fill="black"/>
<path d="M460.864 396.617C458.425 396.617 456.38 395.818 454.74 394.219C453.101 392.62 452.274 390.602 452.274 388.163C452.274 385.629 453.101 383.557 454.74 381.958C456.38 380.359 458.425 379.56 460.864 379.56C463.303 379.56 465.322 380.359 466.92 381.958C468.519 383.557 469.318 385.616 469.318 388.163C469.318 390.602 468.519 392.62 466.92 394.219C465.322 395.818 463.303 396.617 460.864 396.617ZM455.228 476.228V407.32H466.365V476.228H455.228Z" fill="black"/>
<path d="M489.749 476.228V377.595H500.886V476.228H489.749Z" fill="black"/>
<path d="M553.44 478.192C547.52 478.192 542.073 476.783 537.101 473.965C532.115 471.147 528.173 467.055 525.26 461.704C522.347 456.352 520.897 450.012 520.897 442.682V440.853C520.897 433.523 522.347 427.21 525.26 421.899C528.173 416.588 532.088 412.51 537.02 409.637C541.951 406.779 547.425 405.343 553.44 405.343C558.237 405.343 562.288 405.979 565.634 407.239C568.967 408.513 571.663 410.112 573.736 412.035C575.795 413.959 577.394 416.005 578.532 418.159H580.51V377.595H591.647V476.228H580.795V464.806H578.817C576.933 468.288 574.02 471.377 570.078 474.101C566.122 476.837 560.58 478.192 553.44 478.192ZM556.394 468.329C563.534 468.329 569.333 466.053 573.79 461.501C578.248 456.948 580.483 450.581 580.483 442.411V441.137C580.483 432.968 578.248 426.6 573.79 422.048C569.333 417.495 563.52 415.219 556.394 415.219C549.349 415.219 543.55 417.495 538.998 422.048C534.446 426.6 532.169 432.968 532.169 441.137V442.411C532.169 450.581 534.446 456.948 538.998 461.501C543.55 466.053 549.349 468.329 556.394 468.329Z" fill="black"/>
<path d="M683.071 478.192C676.121 478.192 669.984 476.729 664.686 473.829C659.375 470.916 655.243 466.811 652.289 461.5C649.336 456.189 647.845 449.93 647.845 442.695V440.866C647.845 433.726 649.322 427.48 652.289 422.129C655.243 416.777 659.375 412.645 664.686 409.732C669.997 406.819 676.121 405.369 683.071 405.369C690.022 405.369 696.145 406.833 701.456 409.732C706.767 412.645 710.9 416.777 713.853 422.129C716.807 427.48 718.297 433.726 718.297 440.866V442.695C718.297 449.93 716.82 456.203 713.853 461.5C710.9 466.811 706.754 470.916 701.456 473.829C696.145 476.742 690.022 478.192 683.071 478.192ZM683.071 468.193C690.401 468.193 696.24 465.863 700.616 461.216C704.993 456.569 707.174 450.296 707.174 442.411V441.137C707.174 433.252 704.993 426.979 700.616 422.332C696.24 417.685 690.401 415.355 683.071 415.355C675.836 415.355 670.011 417.685 665.594 422.332C661.177 426.979 658.969 433.252 658.969 441.137V442.411C658.969 450.296 661.177 456.569 665.594 461.216C670.011 465.863 675.836 468.193 683.071 468.193Z" fill="black"/>
<path d="M738.294 476.228V407.321H749.147V419.013H751.125C752.629 415.721 755.189 412.74 758.807 410.071C762.424 407.389 767.749 406.061 774.794 406.061C779.956 406.061 784.589 407.145 788.667 409.299C792.759 411.467 796.011 414.65 798.463 418.878C800.902 423.105 802.121 428.321 802.121 434.512V476.214H790.984V435.366C790.984 428.51 789.263 423.525 785.836 420.436C782.408 417.333 777.774 415.789 771.962 415.789C765.296 415.789 759.863 417.956 755.691 422.265C751.504 426.587 749.418 433.022 749.418 441.571V476.228H738.294Z" fill="black"/>
</g>
<defs>
<clipPath id="clip0_900_4711">
<rect width="623.226" height="420" fill="white" transform="translate(228.387 330)"/>
</clipPath>
</defs>
</svg>
