<svg width="1080" height="1080" viewBox="0 0 1080 1080" fill="none" xmlns="http://www.w3.org/2000/svg">
<rect width="1080" height="1080" fill="black"/>
<g clip-path="url(#clip0_871_3946)">
<path d="M717.381 489.068C709.942 489.068 703.902 495.107 703.902 502.546C703.902 509.985 709.942 516.025 717.381 516.025H772.268C806.132 516.025 833.682 543.575 833.682 577.439C833.682 611.302 806.132 638.853 772.268 638.853H642.488C608.625 638.853 581.074 611.302 581.074 577.439V530.005C581.074 507.445 562.713 489.083 540.152 489.083H512.708C505.269 489.083 499.23 495.123 499.23 502.562V577.454C499.23 611.318 471.679 638.868 437.816 638.868H296.565C272.818 638.868 253.194 623.336 247.732 600.212C242.271 577.089 252.89 554.422 274.127 543.803L375.063 493.327C375.946 492.886 376.661 492.536 376.25 490.802C375.839 489.068 375.063 489.068 374.059 489.068H193.697C191.278 505.695 190 522.703 190 540C190 733.294 346.707 890 540 890C733.293 890 890 733.294 890 540C890 522.703 888.722 505.695 886.303 489.068H717.381Z" fill="white"/>
<path d="M374.059 441.147C397.806 441.147 417.431 456.68 422.892 479.788C428.353 502.911 417.735 525.578 396.498 536.197L295.561 586.673C294.679 587.114 293.964 587.464 294.375 589.198C294.785 590.932 295.561 590.932 296.565 590.932H437.801C445.24 590.932 451.279 584.878 451.279 577.454V502.561C451.279 468.698 478.829 441.147 512.693 441.147H540.137C589.137 441.147 628.995 481.005 628.995 530.005V577.454C628.995 584.893 635.034 590.932 642.473 590.932H772.253C779.692 590.932 785.732 584.878 785.732 577.454C785.732 570.03 779.692 563.975 772.253 563.975H717.366C683.502 563.975 655.952 536.425 655.952 502.561C655.952 468.698 683.502 441.147 717.366 441.147H875.806C833.15 295.987 698.958 190 540 190C381.027 190 246.85 295.987 204.178 441.147H374.059Z" fill="white"/>
</g>
<defs>
<clipPath id="clip0_871_3946">
<rect width="700" height="700" fill="white" transform="translate(190 190)"/>
</clipPath>
</defs>
</svg>
