<svg width="1080" height="1080" viewBox="0 0 1080 1080" fill="none" xmlns="http://www.w3.org/2000/svg">
<rect width="1080" height="1080" fill="#CAFC01"/>
<g clip-path="url(#clip0_871_3876)">
<path d="M822.535 567.365H663.439C621.926 567.365 588.152 533.591 588.152 492.078V433.93C588.152 406.273 565.643 383.764 537.986 383.764H504.343C495.223 383.764 487.819 391.167 487.819 400.287V492.097C487.819 533.61 454.046 567.384 412.533 567.384H239.375C210.263 567.384 186.206 548.343 179.511 519.996C172.816 491.649 185.833 463.862 211.867 450.845L335.605 388.967C336.686 388.426 337.563 387.997 337.059 385.871C336.556 383.745 335.605 383.745 334.374 383.745H177.777V325H334.374C363.485 325 387.543 344.041 394.238 372.369C400.933 400.716 387.916 428.503 361.881 441.52L238.144 503.398C237.062 503.939 236.186 504.368 236.689 506.494C237.193 508.62 238.144 508.62 239.375 508.62H412.514C421.633 508.62 429.037 501.216 429.037 492.097V400.287C429.056 358.774 462.83 325 504.343 325H537.986C598.055 325 646.916 373.861 646.916 433.93V492.097C646.916 501.216 654.319 508.62 663.439 508.62H822.535C831.655 508.62 839.058 501.216 839.058 492.097C839.058 482.977 831.655 475.574 822.535 475.574H755.249C713.736 475.574 679.962 441.8 679.962 400.287C679.962 358.774 713.736 325 755.249 325H897.822V383.764H755.249C746.129 383.764 738.726 391.167 738.726 400.287C738.726 409.406 746.129 416.81 755.249 416.81H822.535C864.048 416.81 897.822 450.584 897.822 492.097C897.822 533.61 864.048 567.365 822.535 567.365Z" fill="black"/>
<path d="M216.436 755.424C207.615 755.424 199.69 753.521 192.659 749.736C185.628 745.95 180.108 740.504 176.061 733.418C172.014 726.331 170 717.939 170 708.241V706.19C170 696.362 172.014 687.951 176.061 680.92C180.108 673.889 185.628 668.481 192.659 664.695C199.69 660.91 207.615 659.007 216.436 659.007C225.146 659.007 232.568 660.63 238.722 663.856C244.877 667.082 249.725 671.372 253.269 676.724C256.812 682.076 259.087 687.783 260.076 693.881L245.716 696.865C245.1 692.389 243.627 688.287 241.333 684.557C239.039 680.827 235.832 677.843 231.729 675.605C227.626 673.367 222.591 672.248 216.623 672.248C210.525 672.248 205.098 673.61 200.305 676.351C195.512 679.092 191.726 683.009 188.929 688.1C186.132 693.191 184.733 699.29 184.733 706.376V708.055C184.733 715.141 186.132 721.24 188.929 726.331C191.726 731.422 195.512 735.338 200.305 738.08C205.098 740.821 210.525 742.183 216.623 742.183C225.705 742.183 232.624 739.814 237.417 735.096C242.21 730.378 245.156 724.522 246.275 717.566L260.822 720.736C259.46 726.704 256.961 732.355 253.362 737.707C249.763 743.059 244.877 747.349 238.722 750.575C232.568 753.82 225.146 755.424 216.436 755.424Z" fill="black"/>
<path d="M328.145 755.424C318.951 755.424 310.82 753.503 303.808 749.642C296.777 745.782 291.313 740.355 287.397 733.324C283.48 726.294 281.522 717.995 281.522 708.428V706.003C281.522 696.548 283.48 688.287 287.397 681.2C291.313 674.113 296.777 668.649 303.808 664.789C310.839 660.928 318.951 659.007 328.145 659.007C337.339 659.007 345.452 660.928 352.482 664.789C359.513 668.649 364.977 674.113 368.894 681.2C372.81 688.287 374.768 696.548 374.768 706.003V708.428C374.768 717.995 372.81 726.294 368.894 733.324C364.977 740.355 359.513 745.782 352.482 749.642C345.452 753.503 337.339 755.424 328.145 755.424ZM328.145 742.183C337.843 742.183 345.582 739.106 351.363 732.951C357.145 726.797 360.035 718.498 360.035 708.055V706.376C360.035 695.933 357.145 687.634 351.363 681.48C345.582 675.325 337.843 672.248 328.145 672.248C318.578 672.248 310.857 675.325 305.02 681.48C299.183 687.634 296.255 695.933 296.255 706.376V708.055C296.255 718.498 299.183 726.797 305.02 732.951C310.857 739.106 318.56 742.183 328.145 742.183Z" fill="black"/>
<path d="M401.25 752.812V661.618H415.61V677.097H418.221C420.216 672.751 423.592 668.798 428.385 665.254C433.177 661.711 440.227 659.939 449.551 659.939C456.396 659.939 462.513 661.375 467.921 664.229C473.329 667.082 477.656 671.315 480.882 676.91C484.108 682.505 485.731 689.405 485.731 697.611V752.812H470.998V698.73C470.998 689.648 468.723 683.064 464.191 678.962C459.659 674.859 453.524 672.807 445.822 672.807C437 672.807 429.821 675.661 424.282 681.386C418.743 687.111 415.983 695.615 415.983 706.935V752.812H401.25Z" fill="black"/>
<path d="M515.569 752.812V661.618H529.929V677.097H532.54C534.536 672.751 537.911 668.798 542.704 665.254C547.497 661.711 554.546 659.939 563.871 659.939C570.715 659.939 576.832 661.375 582.24 664.229C587.648 667.082 591.975 671.315 595.201 676.91C598.428 682.505 600.05 689.405 600.05 697.611V752.812H585.317V698.73C585.317 689.648 583.042 683.064 578.51 678.962C573.979 674.859 567.843 672.807 560.141 672.807C551.32 672.807 544.14 675.661 538.601 681.386C533.062 687.111 530.302 695.615 530.302 706.935V752.812H515.569Z" fill="black"/>
<path d="M671.663 755.424C662.469 755.424 654.375 753.465 647.419 749.549C640.463 745.633 635.055 740.131 631.194 733.045C627.334 725.958 625.413 717.752 625.413 708.428V706.19C625.413 696.735 627.334 688.473 631.194 681.386C635.055 674.3 640.388 668.798 647.233 664.882C654.077 660.965 661.91 659.007 670.731 659.007C679.309 659.007 686.9 660.835 693.483 664.509C700.066 668.183 705.232 673.423 708.961 680.267C712.691 687.112 714.556 695.131 714.556 704.325V711.039H640.146C640.519 720.867 643.689 728.532 649.657 734.07C655.625 739.609 663.084 742.369 672.036 742.369C679.869 742.369 685.892 740.56 690.126 736.961C694.359 733.362 697.585 729.072 699.823 724.093L712.505 730.247C710.64 734.108 708.066 737.949 704.765 741.81C701.465 745.67 697.175 748.896 691.897 751.507C686.601 754.118 679.869 755.424 671.663 755.424ZM640.332 698.917H699.637C699.133 690.469 696.243 683.867 690.965 679.148C685.687 674.43 678.936 672.062 670.731 672.062C662.394 672.062 655.569 674.43 650.217 679.148C644.864 683.885 641.563 690.469 640.332 698.917Z" fill="black"/>
<path d="M782.253 755.424C773.432 755.424 765.506 753.521 758.475 749.736C751.444 745.95 745.924 740.504 741.877 733.418C737.831 726.331 735.816 717.939 735.816 708.241V706.19C735.816 696.362 737.831 687.951 741.877 680.92C745.924 673.889 751.444 668.481 758.475 664.695C765.506 660.91 773.432 659.007 782.253 659.007C790.962 659.007 798.384 660.63 804.539 663.856C810.693 667.082 815.542 671.372 819.085 676.724C822.628 682.076 824.904 687.783 825.892 693.881L811.532 696.865C810.917 692.389 809.443 688.287 807.15 684.557C804.856 680.827 801.648 677.843 797.545 675.605C793.442 673.367 788.407 672.248 782.439 672.248C776.341 672.248 770.914 673.61 766.121 676.351C761.329 679.092 757.543 683.009 754.745 688.1C751.948 693.191 750.549 699.29 750.549 706.376V708.055C750.549 715.141 751.948 721.24 754.745 726.331C757.543 731.422 761.329 735.338 766.121 738.08C770.914 740.821 776.341 742.183 782.439 742.183C791.522 742.183 798.44 739.814 803.233 735.096C808.026 730.378 810.973 724.522 812.092 717.566L826.638 720.736C825.277 726.704 822.778 732.355 819.178 737.707C815.579 743.059 810.693 747.349 804.539 750.575C798.384 753.82 790.943 755.424 782.253 755.424Z" fill="black"/>
<path d="M881.653 752.813C876.431 752.813 872.422 751.377 869.625 748.523C866.827 745.67 865.428 741.754 865.428 736.774V674.486H838.014V661.618H865.428V629.168H880.161V661.618H910V674.486H880.161V734.536C880.161 738.266 881.97 740.131 885.57 740.131H905.897V752.813H881.653Z" fill="black"/>
</g>
<defs>
<clipPath id="clip0_871_3876">
<rect width="740" height="430.423" fill="white" transform="translate(170 325)"/>
</clipPath>
</defs>
</svg>
