<svg width="1080" height="1080" viewBox="0 0 1080 1080" fill="none" xmlns="http://www.w3.org/2000/svg">
<rect width="1080" height="1080" fill="#CAFC01"/>
<path d="M868.188 679.362H684.805C636.955 679.362 598.026 640.433 598.026 592.583V525.558C598.026 493.68 572.08 467.734 540.202 467.734H501.423C490.911 467.734 482.377 476.268 482.377 486.779V592.604C482.377 640.454 443.448 679.384 395.598 679.384H196.007C162.452 679.384 134.722 657.436 127.005 624.762C119.288 592.088 134.292 560.059 164.301 545.055L306.927 473.731C308.174 473.108 309.184 472.614 308.604 470.163C308.023 467.712 306.927 467.712 305.508 467.712H125.006V400H305.508C339.063 400 366.793 421.947 374.51 454.6C382.227 487.274 367.223 519.303 337.215 534.307L194.589 605.631C193.342 606.254 192.332 606.749 192.912 609.199C193.492 611.65 194.589 611.65 196.007 611.65H395.576C406.088 611.65 414.622 603.116 414.622 592.604V486.779C414.643 438.929 453.573 400 501.423 400H540.202C609.44 400 665.76 456.32 665.76 525.558V592.604C665.76 603.116 674.294 611.65 684.805 611.65H868.188C878.699 611.65 887.233 603.116 887.233 592.604C887.233 582.093 878.699 573.559 868.188 573.559H790.63C742.78 573.559 703.851 534.629 703.851 486.779C703.851 438.929 742.78 400 790.63 400H954.967V467.734H790.63C780.118 467.734 771.585 476.268 771.585 486.779C771.585 497.291 780.118 505.825 790.63 505.825H868.188C916.038 505.825 954.967 544.754 954.967 592.604C954.967 640.454 916.038 679.362 868.188 679.362Z" fill="black"/>
</svg>
