<svg width="1080" height="1080" viewBox="0 0 1080 1080" fill="none" xmlns="http://www.w3.org/2000/svg">
<rect width="1080" height="1080" fill="white"/>
<path d="M868.217 679.373H684.827C636.975 679.373 598.045 640.442 598.045 592.59V525.563C598.045 493.683 572.098 467.737 540.218 467.737H501.438C490.926 467.737 482.391 476.271 482.391 486.783V592.612C482.391 640.464 443.461 679.395 395.609 679.395H196.01C162.454 679.395 134.723 657.446 127.005 624.771C119.288 592.096 134.293 560.066 164.302 545.061L306.934 473.734C308.181 473.111 309.191 472.616 308.611 470.166C308.03 467.715 306.934 467.715 305.515 467.715H125.006V400H305.515C339.072 400 366.803 421.948 374.52 454.602C382.238 487.277 367.233 519.308 337.223 534.312L194.592 605.639C193.345 606.262 192.334 606.757 192.915 609.207C193.495 611.658 194.592 611.658 196.01 611.658H395.587C406.099 611.658 414.633 603.124 414.633 592.612V486.783C414.655 438.931 453.586 400 501.438 400H540.218C609.459 400 665.781 456.322 665.781 525.563V592.612C665.781 603.124 674.315 611.658 684.827 611.658H868.217C878.729 611.658 887.263 603.124 887.263 592.612C887.263 582.1 878.729 573.566 868.217 573.566H790.657C742.805 573.566 703.874 534.635 703.874 486.783C703.874 438.931 742.805 400 790.657 400H955V467.737H790.657C780.145 467.737 771.61 476.271 771.61 486.783C771.61 497.295 780.145 505.829 790.657 505.829H868.217C916.069 505.829 955 544.76 955 592.612C955 640.464 916.069 679.373 868.217 679.373Z" fill="black"/>
</svg>
