<svg width="1080" height="1080" viewBox="0 0 1080 1080" fill="none" xmlns="http://www.w3.org/2000/svg">
<rect width="1080" height="1080" fill="black"/>
<path d="M824.764 661.365H665.668C624.155 661.365 590.381 627.591 590.381 586.078V527.93C590.381 500.273 567.871 477.764 540.215 477.764H506.571C497.452 477.764 490.048 485.167 490.048 494.287V586.097C490.048 627.61 456.275 661.384 414.761 661.384H241.604C212.492 661.384 188.435 642.343 181.74 613.996C175.045 585.649 188.062 557.862 214.096 544.845L337.833 482.967C338.915 482.426 339.792 481.997 339.288 479.871C338.785 477.745 337.833 477.745 336.603 477.745H180.005V419H336.603C365.714 419 389.771 438.041 396.467 466.369C403.162 494.716 390.144 522.503 364.11 535.52L240.373 597.398C239.291 597.939 238.415 598.368 238.918 600.494C239.422 602.62 240.373 602.62 241.604 602.62H414.743C423.862 602.62 431.266 595.216 431.266 586.097V494.287C431.285 452.774 465.058 419 506.571 419H540.215C600.284 419 649.144 467.861 649.144 527.93V586.097C649.144 595.216 656.548 602.62 665.668 602.62H824.764C833.883 602.62 841.287 595.216 841.287 586.097C841.287 576.977 833.883 569.574 824.764 569.574H757.478C715.965 569.574 682.191 535.8 682.191 494.287C682.191 452.774 715.965 419 757.478 419H900.051V477.764H757.478C748.358 477.764 740.954 485.167 740.954 494.287C740.954 503.406 748.358 510.81 757.478 510.81H824.764C866.277 510.81 900.051 544.584 900.051 586.097C900.051 627.61 866.277 661.365 824.764 661.365Z" fill="white"/>
</svg>
